<svg height="406" viewBox="0 0 619 406" width="619" xmlns="http://www.w3.org/2000/svg" xmlns:xlink="http://www.w3.org/1999/xlink"><defs><radialGradient id="a" cx="48.573708%" cy="56.100724%" gradientTransform="matrix(.43430436 .74074517 -.47888582 .67178613 .543438 -.175677)" r="43.891318%"><stop offset="0" stop-color="#fff"/><stop offset="1" stop-color="#fad961"/></radialGradient><path id="b" d="m615.427267 344.446487-70.239147 64.250395-14.174427-77.187735-100.212926 36.594065 35.137484-72.442295-121.938251 25.554475 91.108941-76.101197-98.041728-36.612139 119.521174-17.053432-92.706884-83.62044 131.09437 39.130157-26.944857-90.0540657 93.926306 58.9312577 53.469945-96.835533 33.469945 102.835533 92.926306-71.9312577-15.944857 107.0540657 131.094371-39.130157-81.706884 73.62044 141.521174 8.053432-121.041729 45.612139 144.108941 51.101197-174.93825-.554475 15.137483 102.442295-80.212925-66.594065-13.127437 71.486284-1.04699 5.701451z"/><filter id="c" height="108.6%" width="108.2%" x="-3.7%" y="-3.2%"><feMorphology in="SourceAlpha" operator="dilate" radius="3" result="shadowSpreadOuter1"/><feOffset dx="0" dy="5" in="shadowSpreadOuter1" result="shadowOffsetOuter1"/><feGaussianBlur in="shadowOffsetOuter1" result="shadowBlurOuter1" stdDeviation="2.5"/><feComposite in="shadowBlurOuter1" in2="SourceAlpha" operator="out" result="shadowBlurOuter1"/><feColorMatrix in="shadowBlurOuter1" type="matrix" values="0 0 0 0 0   0 0 0 0 0   0 0 0 0 0  0 0 0 0.5 0"/></filter></defs><g fill="none" stroke-linecap="square" stroke-linejoin="round" transform="translate(-329 -16)"><use fill="#000" filter="url(#c)" xlink:href="#b"/><use fill="url(#a)" stroke="#000" stroke-width="6" xlink:href="#b"/></g></svg>